<mxfile host="app.diagrams.net" modified="2024-11-24T16:30:35.088Z" agent="Mozilla/5.0 (X11; Linux x86_64; rv:132.0) Gecko/20100101 Firefox/132.0" etag="phYUOhvvCPkZ4dGQG_IW" version="24.6.2" type="device">
  <diagram id="R2lEEEUBdFMjLlhIrx00" name="Page-1">
    <mxGraphModel dx="2017" dy="612" grid="1" gridSize="10" guides="1" tooltips="1" connect="1" arrows="1" fold="1" page="1" pageScale="1" pageWidth="850" pageHeight="1100" math="0" shadow="0" extFonts="Permanent Marker^https://fonts.googleapis.com/css?family=Permanent+Marker">
      <root>
        <mxCell id="0" />
        <mxCell id="1" parent="0" />
        <mxCell id="JrK3aXgfPB5wlK0q4wXB-1" value="Cliente" style="whiteSpace=wrap;html=1;align=center;" vertex="1" parent="1">
          <mxGeometry x="-380" y="380" width="100" height="40" as="geometry" />
        </mxCell>
        <mxCell id="JrK3aXgfPB5wlK0q4wXB-2" value="Staff" style="whiteSpace=wrap;html=1;align=center;" vertex="1" parent="1">
          <mxGeometry x="-380" y="220" width="100" height="40" as="geometry" />
        </mxCell>
        <mxCell id="JrK3aXgfPB5wlK0q4wXB-3" value="Prenotazione" style="whiteSpace=wrap;html=1;align=center;" vertex="1" parent="1">
          <mxGeometry x="-120" y="380" width="100" height="40" as="geometry" />
        </mxCell>
        <mxCell id="JrK3aXgfPB5wlK0q4wXB-4" value="Negozio" style="whiteSpace=wrap;html=1;align=center;" vertex="1" parent="1">
          <mxGeometry x="-120" y="220" width="100" height="40" as="geometry" />
        </mxCell>
        <mxCell id="JrK3aXgfPB5wlK0q4wXB-6" value="Prenota" style="shape=rhombus;perimeter=rhombusPerimeter;whiteSpace=wrap;html=1;align=center;" vertex="1" parent="1">
          <mxGeometry x="-240" y="370" width="80" height="60" as="geometry" />
        </mxCell>
        <mxCell id="JrK3aXgfPB5wlK0q4wXB-7" value="Lavora" style="shape=rhombus;perimeter=rhombusPerimeter;whiteSpace=wrap;html=1;align=center;" vertex="1" parent="1">
          <mxGeometry x="-240" y="210" width="80" height="60" as="geometry" />
        </mxCell>
        <mxCell id="JrK3aXgfPB5wlK0q4wXB-8" value="Riceve" style="shape=rhombus;perimeter=rhombusPerimeter;whiteSpace=wrap;html=1;align=center;" vertex="1" parent="1">
          <mxGeometry x="-110" y="290" width="80" height="60" as="geometry" />
        </mxCell>
        <mxCell id="JrK3aXgfPB5wlK0q4wXB-11" value="" style="line;strokeWidth=1;rotatable=0;dashed=0;labelPosition=right;align=left;verticalAlign=middle;spacingTop=0;spacingLeft=6;points=[];portConstraint=eastwest;" vertex="1" parent="1">
          <mxGeometry x="-160" y="235" width="40" height="10" as="geometry" />
        </mxCell>
        <mxCell id="JrK3aXgfPB5wlK0q4wXB-12" value="" style="line;strokeWidth=1;rotatable=0;dashed=0;labelPosition=right;align=left;verticalAlign=middle;spacingTop=0;spacingLeft=6;points=[];portConstraint=eastwest;" vertex="1" parent="1">
          <mxGeometry x="-280" y="235" width="40" height="10" as="geometry" />
        </mxCell>
        <mxCell id="JrK3aXgfPB5wlK0q4wXB-17" value="" style="endArrow=none;html=1;rounded=0;entryX=0.5;entryY=1;entryDx=0;entryDy=0;exitX=0.5;exitY=0;exitDx=0;exitDy=0;" edge="1" parent="1" source="JrK3aXgfPB5wlK0q4wXB-8" target="JrK3aXgfPB5wlK0q4wXB-4">
          <mxGeometry width="50" height="50" relative="1" as="geometry">
            <mxPoint x="-170" y="330" as="sourcePoint" />
            <mxPoint x="-120" y="280" as="targetPoint" />
          </mxGeometry>
        </mxCell>
        <mxCell id="JrK3aXgfPB5wlK0q4wXB-18" value="" style="endArrow=none;html=1;rounded=0;entryX=0.5;entryY=1;entryDx=0;entryDy=0;exitX=0.5;exitY=0;exitDx=0;exitDy=0;" edge="1" parent="1">
          <mxGeometry width="50" height="50" relative="1" as="geometry">
            <mxPoint x="-70.42" y="380" as="sourcePoint" />
            <mxPoint x="-70.42" y="350" as="targetPoint" />
          </mxGeometry>
        </mxCell>
        <mxCell id="JrK3aXgfPB5wlK0q4wXB-19" value="" style="line;strokeWidth=1;rotatable=0;dashed=0;labelPosition=right;align=left;verticalAlign=middle;spacingTop=0;spacingLeft=6;points=[];portConstraint=eastwest;" vertex="1" parent="1">
          <mxGeometry x="-160" y="395" width="40" height="10" as="geometry" />
        </mxCell>
        <mxCell id="JrK3aXgfPB5wlK0q4wXB-20" value="" style="line;strokeWidth=1;rotatable=0;dashed=0;labelPosition=right;align=left;verticalAlign=middle;spacingTop=0;spacingLeft=6;points=[];portConstraint=eastwest;" vertex="1" parent="1">
          <mxGeometry x="-280" y="395" width="40" height="10" as="geometry" />
        </mxCell>
      </root>
    </mxGraphModel>
  </diagram>
</mxfile>
